<?xml version="1.0" encoding="utf-8"?>
<!-- Generator: Adobe Illustrator 16.0.0, SVG Export Plug-In . SVG Version: 6.00 Build 0)  -->
<!DOCTYPE svg PUBLIC "-//W3C//DTD SVG 1.1//EN" "http://www.w3.org/Graphics/SVG/1.1/DTD/svg11.dtd">
<svg version="1.1" id="Layer_1" xmlns="http://www.w3.org/2000/svg" xmlns:xlink="http://www.w3.org/1999/xlink" x="0px" y="0px"
	 width="487.347px" height="90.184px" viewBox="0 0 487.347 90.184" enable-background="new 0 0 487.347 90.184"
	 xml:space="preserve">
<polygon fill="#00387B" points="23.896,17.813 23.896,46.731 37.41,32.688 50.094,32.688 35.372,47.033 51.755,71.722 
	38.769,71.722 28.049,54.281 23.896,58.283 23.896,71.722 13.175,71.722 13.175,17.813 "/>
<path fill="#00387B" d="M55.832,17.814h10.722v8.834H55.832V17.814z M66.554,71.722H55.832V32.688h10.722V71.722z"/>
<path fill="#00387B" d="M85.202,32.688v4.983h0.151c1.307-2.115,2.969-3.649,4.983-4.605c2.012-0.956,4.228-1.436,6.643-1.436
	c3.07,0,5.713,0.58,7.928,1.737c2.214,1.158,4.051,2.693,5.511,4.604c1.459,1.914,2.542,4.142,3.246,6.683
	c0.705,2.542,1.058,5.197,1.058,7.965c0,2.618-0.353,5.134-1.058,7.549c-0.705,2.417-1.773,4.556-3.208,6.418
	c-1.434,1.863-3.222,3.348-5.36,4.455c-2.14,1.106-4.644,1.662-7.513,1.662c-2.417,0-4.644-0.491-6.682-1.472
	c-2.038-0.982-3.713-2.429-5.021-4.343h-0.151v18.498H75.009V32.688H85.202z M99.132,63.644c1.182-0.704,2.138-1.624,2.869-2.756
	c0.729-1.133,1.246-2.454,1.547-3.964c0.303-1.51,0.455-3.044,0.455-4.605c0-1.559-0.166-3.095-0.492-4.606
	c-0.328-1.51-0.868-2.856-1.623-4.039c-0.754-1.182-1.725-2.139-2.907-2.869c-1.182-0.729-2.63-1.095-4.34-1.095
	c-1.763,0-3.236,0.367-4.418,1.095c-1.183,0.73-2.14,1.674-2.868,2.831c-0.731,1.159-1.246,2.492-1.548,4.001
	s-0.453,3.071-0.453,4.681c0,1.562,0.163,3.095,0.491,4.605c0.327,1.51,0.855,2.832,1.585,3.964
	c0.729,1.132,1.699,2.052,2.907,2.756c1.208,0.705,2.667,1.057,4.378,1.057C96.476,64.701,97.948,64.349,99.132,63.644"/>
<path fill="#00387B" d="M121.442,17.814h10.721v8.834h-10.721V17.814z M132.163,71.722h-10.721V32.688h10.721V71.722z"/>
<path fill="#00387B" d="M151.038,32.688v5.284h0.151c1.409-2.013,3.107-3.573,5.096-4.681c1.987-1.106,4.266-1.661,6.833-1.661
	c2.466,0,4.719,0.479,6.757,1.435s3.586,2.642,4.644,5.058c1.157-1.709,2.73-3.22,4.719-4.53c1.988-1.308,4.341-1.962,7.059-1.962
	c2.063,0,3.975,0.253,5.738,0.756c1.761,0.503,3.271,1.308,4.53,2.415c1.257,1.109,2.239,2.555,2.945,4.341
	c0.704,1.789,1.057,3.94,1.057,6.456v26.124h-10.722V49.601c0-1.309-0.051-2.541-0.151-3.7c-0.101-1.158-0.378-2.163-0.831-3.021
	c-0.453-0.855-1.121-1.535-2-2.037c-0.882-0.504-2.076-0.756-3.586-0.756s-2.732,0.291-3.662,0.869
	c-0.933,0.579-1.662,1.334-2.189,2.266c-0.53,0.931-0.882,1.987-1.057,3.17c-0.177,1.183-0.264,2.379-0.264,3.586v21.744h-10.721
	V49.827c0-1.159-0.026-2.304-0.076-3.436c-0.05-1.133-0.264-2.177-0.641-3.134c-0.378-0.956-1.008-1.723-1.888-2.302
	c-0.88-0.578-2.177-0.869-3.888-0.869c-0.504,0-1.171,0.114-2,0.34c-0.831,0.227-1.636,0.655-2.417,1.284
	c-0.781,0.63-1.448,1.536-2.001,2.718c-0.554,1.183-0.831,2.73-0.831,4.644v22.649H140.92V32.688H151.038z"/>
<path fill="#00387B" d="M209.248,43.748c0.956-2.541,2.313-4.705,4.076-6.493c1.762-1.786,3.876-3.171,6.343-4.152
	c2.465-0.982,5.234-1.472,8.305-1.472c3.069,0,5.852,0.49,8.343,1.472c2.492,0.981,4.617,2.367,6.38,4.152
	c1.76,1.788,3.12,3.952,4.076,6.493c0.956,2.543,1.435,5.375,1.435,8.494c0,3.122-0.479,5.94-1.435,8.457
	c-0.957,2.517-2.316,4.669-4.076,6.455c-1.763,1.787-3.889,3.159-6.38,4.114c-2.491,0.956-5.273,1.436-8.343,1.436
	c-3.071,0-5.84-0.479-8.305-1.436c-2.467-0.956-4.582-2.327-6.343-4.114c-1.763-1.786-3.12-3.938-4.076-6.455
	c-0.958-2.517-1.436-5.335-1.436-8.457C207.813,49.123,208.291,46.292,209.248,43.748 M218.988,56.811
	c0.301,1.485,0.817,2.819,1.547,4.001c0.729,1.184,1.698,2.127,2.907,2.832c1.207,0.705,2.718,1.057,4.53,1.057
	c1.812,0,3.333-0.352,4.567-1.057c1.233-0.704,2.215-1.648,2.945-2.832c0.729-1.182,1.245-2.517,1.547-4.001
	c0.301-1.484,0.454-3.008,0.454-4.568c0-1.56-0.152-3.096-0.454-4.605c-0.302-1.51-0.819-2.842-1.547-4.001
	c-0.73-1.157-1.712-2.101-2.945-2.831c-1.234-0.729-2.756-1.095-4.567-1.095c-1.812,0-3.323,0.367-4.53,1.095
	c-1.209,0.73-2.178,1.674-2.907,2.831c-0.73,1.159-1.246,2.492-1.547,4.001c-0.303,1.51-0.454,3.046-0.454,4.605
	C218.535,53.803,218.686,55.327,218.988,56.811"/>
<g>
	<g opacity="0.1">
		<g>
			<defs>
				<rect id="SVGID_1_" x="267.418" y="18.234" width="61.611" height="59.258"/>
			</defs>
			<clipPath id="SVGID_2_">
				<use xlink:href="#SVGID_1_"  overflow="visible"/>
			</clipPath>
			<g clip-path="url(#SVGID_2_)">
				<defs>
					<path id="SVGID_3_" d="M324.773,23.278l-51.988-5.011c-3.789-0.439-6.554,3.499-4.856,6.914l24.695,49.645
						c1.703,3.424,6.528,3.584,8.454,0.28l27.292-44.634C330.116,27.479,328.215,23.677,324.773,23.278"/>
				</defs>
				<clipPath id="SVGID_4_">
					<use xlink:href="#SVGID_3_"  overflow="visible"/>
				</clipPath>
				
					<linearGradient id="SVGID_5_" gradientUnits="userSpaceOnUse" x1="-605.7124" y1="1464.1445" x2="-604.95" y2="1464.1445" gradientTransform="matrix(64.4975 37.8156 37.8156 -64.4975 -16036.875 117366.9063)">
					<stop  offset="0" style="stop-color:#F54F65"/>
					<stop  offset="1" style="stop-color:#FF8D3A"/>
				</linearGradient>
				<polygon clip-path="url(#SVGID_4_)" fill="url(#SVGID_5_)" points="282.573,-10.046 356.549,33.326 313.773,106.284 
					239.797,62.911 				"/>
			</g>
		</g>
	</g>
</g>
<g>
	<defs>
		<path id="SVGID_6_" d="M278.761,15.169l0.268,55.449c0.018,3.822,4.277,6.095,7.462,3.979l44.181-28.021
			c2.887-1.917,2.856-6.166-0.057-8.043l-44.447-27.427c-0.827-0.531-1.72-0.774-2.591-0.774
			C281.069,10.333,278.748,12.338,278.761,15.169"/>
	</defs>
	<clipPath id="SVGID_7_">
		<use xlink:href="#SVGID_6_"  overflow="visible"/>
	</clipPath>
	
		<linearGradient id="SVGID_8_" gradientUnits="userSpaceOnUse" x1="-608.3647" y1="1462.2588" x2="-607.6021" y2="1462.2588" gradientTransform="matrix(75.0636 12.8401 12.8401 -75.0636 27165.3125 117612.0313)">
		<stop  offset="0" style="stop-color:#F54F65"/>
		<stop  offset="1" style="stop-color:#FF8D3A"/>
	</linearGradient>
	<polygon clip-path="url(#SVGID_7_)" fill="url(#SVGID_8_)" points="280.305,1.225 344.59,12.221 332,85.821 267.715,74.825 	"/>
</g>
<g>
	<g opacity="0.1">
		<g>
			<defs>
				<rect id="SVGID_9_" x="340.908" y="18.234" width="61.611" height="59.258"/>
			</defs>
			<clipPath id="SVGID_10_">
				<use xlink:href="#SVGID_9_"  overflow="visible"/>
			</clipPath>
			<g clip-path="url(#SVGID_10_)">
				<defs>
					<path id="SVGID_11_" d="M398.263,23.278l-51.987-5.011c-3.788-0.439-6.555,3.499-4.855,6.914l24.695,49.645
						c1.703,3.424,6.528,3.584,8.453,0.28l27.291-44.634C403.605,27.479,401.706,23.677,398.263,23.278"/>
				</defs>
				<clipPath id="SVGID_12_">
					<use xlink:href="#SVGID_11_"  overflow="visible"/>
				</clipPath>
				
					<linearGradient id="SVGID_13_" gradientUnits="userSpaceOnUse" x1="-605.9775" y1="1463.9883" x2="-605.2151" y2="1463.9883" gradientTransform="matrix(64.4975 37.8156 37.8156 -64.4975 -15940.375 117366.9063)">
					<stop  offset="0" style="stop-color:#F2D127"/>
					<stop  offset="1" style="stop-color:#A3D024"/>
				</linearGradient>
				<polygon clip-path="url(#SVGID_12_)" fill="url(#SVGID_13_)" points="356.063,-10.046 430.038,33.326 387.262,106.283 
					313.289,62.911 				"/>
			</g>
		</g>
	</g>
</g>
<g>
	<defs>
		<path id="SVGID_14_" d="M352.25,15.169l0.268,55.449c0.02,3.822,4.279,6.095,7.464,3.979l44.18-28.021
			c2.887-1.917,2.857-6.166-0.057-8.043l-44.446-27.427c-0.826-0.531-1.72-0.774-2.59-0.774
			C354.559,10.333,352.236,12.338,352.25,15.169"/>
	</defs>
	<clipPath id="SVGID_15_">
		<use xlink:href="#SVGID_14_"  overflow="visible"/>
	</clipPath>
	
		<linearGradient id="SVGID_16_" gradientUnits="userSpaceOnUse" x1="-608.6602" y1="1462.208" x2="-607.8979" y2="1462.208" gradientTransform="matrix(75.0636 12.8401 12.8401 -75.0636 27261.625 117612.0313)">
		<stop  offset="0" style="stop-color:#F2D127"/>
		<stop  offset="1" style="stop-color:#A3D024"/>
	</linearGradient>
	<polygon clip-path="url(#SVGID_15_)" fill="url(#SVGID_16_)" points="353.795,1.225 418.079,12.221 405.49,85.821 341.205,74.825 	
		"/>
</g>
<g>
	<g opacity="0.1">
		<g>
			<defs>
				<rect id="SVGID_17_" x="414.398" y="18.234" width="61.611" height="59.258"/>
			</defs>
			<clipPath id="SVGID_18_">
				<use xlink:href="#SVGID_17_"  overflow="visible"/>
			</clipPath>
			<g clip-path="url(#SVGID_18_)">
				<defs>
					<path id="SVGID_19_" d="M471.753,23.278l-51.987-5.011c-3.789-0.439-6.555,3.499-4.855,6.914l24.695,49.645
						c1.702,3.424,6.527,3.584,8.453,0.28l27.293-44.634C477.096,27.479,475.195,23.677,471.753,23.278"/>
				</defs>
				<clipPath id="SVGID_20_">
					<use xlink:href="#SVGID_19_"  overflow="visible"/>
				</clipPath>
				
					<linearGradient id="SVGID_21_" gradientUnits="userSpaceOnUse" x1="-606.2412" y1="1463.833" x2="-605.4788" y2="1463.833" gradientTransform="matrix(64.4975 37.8156 37.8156 -64.4975 -15843.9375 117366.9063)">
					<stop  offset="0" style="stop-color:#1888D8"/>
					<stop  offset="1" style="stop-color:#5252EF"/>
				</linearGradient>
				<polygon clip-path="url(#SVGID_20_)" fill="url(#SVGID_21_)" points="429.555,-10.046 503.529,33.326 460.753,106.283 
					386.777,62.911 				"/>
			</g>
		</g>
	</g>
</g>
<g>
	<defs>
		<path id="SVGID_22_" d="M425.741,15.169l0.267,55.449c0.021,3.822,4.277,6.095,7.464,3.979l44.181-28.021
			c2.887-1.917,2.856-6.166-0.057-8.043l-44.446-27.427c-0.827-0.531-1.721-0.774-2.592-0.774
			C428.048,10.333,425.727,12.338,425.741,15.169"/>
	</defs>
	<clipPath id="SVGID_23_">
		<use xlink:href="#SVGID_22_"  overflow="visible"/>
	</clipPath>
	
		<linearGradient id="SVGID_24_" gradientUnits="userSpaceOnUse" x1="-608.958" y1="1462.1572" x2="-608.1957" y2="1462.1572" gradientTransform="matrix(75.0636 12.8401 12.8401 -75.0636 27358.125 117612.0313)">
		<stop  offset="0" style="stop-color:#1888D8"/>
		<stop  offset="1" style="stop-color:#5252EF"/>
	</linearGradient>
	<polygon clip-path="url(#SVGID_23_)" fill="url(#SVGID_24_)" points="427.285,1.225 491.57,12.221 478.98,85.821 414.695,74.825 	
		"/>
</g>
<g>
</g>
<g>
</g>
<g>
</g>
<g>
</g>
<g>
</g>
<g>
</g>
</svg>
