<?xml version="1.0" encoding="utf-8"?>
<!-- Generator: Adobe Illustrator 16.0.0, SVG Export Plug-In . SVG Version: 6.00 Build 0)  -->
<!DOCTYPE svg PUBLIC "-//W3C//DTD SVG 1.1//EN" "http://www.w3.org/Graphics/SVG/1.1/DTD/svg11.dtd">
<svg version="1.1" id="Layer_1" xmlns="http://www.w3.org/2000/svg" xmlns:xlink="http://www.w3.org/1999/xlink" x="0px" y="0px"
	 width="90px" height="90px" viewBox="0 0 90 90" enable-background="new 0 0 90 90" xml:space="preserve">
<g>
	<defs>
		<path id="SVGID_1_" d="M8.542,46.107c0,20.285,16.444,36.73,36.729,36.73C65.556,82.838,82,66.393,82,46.107
			c0-20.285-16.444-36.73-36.729-36.73C24.986,9.377,8.542,25.823,8.542,46.107"/>
	</defs>
	<clipPath id="SVGID_2_">
		<use xlink:href="#SVGID_1_"  overflow="visible"/>
	</clipPath>
	
		<linearGradient id="SVGID_3_" gradientUnits="userSpaceOnUse" x1="-1211.0503" y1="4236.0859" x2="-1210.6411" y2="4236.0859" gradientTransform="matrix(0 179.4087 179.4087 0 -759945.5 217282.375)">
		<stop  offset="0" style="stop-color:#D65064"/>
		<stop  offset="1" style="stop-color:#E58D42"/>
	</linearGradient>
	<rect x="8.542" y="9.377" clip-path="url(#SVGID_2_)" fill="url(#SVGID_3_)" width="73.458" height="73.46"/>
</g>
<path fill="#FFFFFF" d="M62.832,31.139c-4.089-4.093-9.765-6.632-16.01-6.632c-3.992,0-7.736,1.053-10.991,2.867l-4.503-4.741
	c-0.171-0.18-0.431-0.247-0.666-0.17c-0.238,0.074-0.411,0.281-0.445,0.527l-1.688,12.024l-0.144,1.016l-0.306,2.183
	c-0.03,0.205,0.041,0.409,0.188,0.554c0.146,0.144,0.354,0.21,0.557,0.177l2.046-0.324l0.5-0.08l0.656-0.104l11.213-1.782
	c0.163-0.025,0.304-0.116,0.403-0.24c0.031-0.105,0.073-0.205,0.13-0.296c0.033-0.198-0.023-0.403-0.164-0.55l-4.058-4.274
	c2.213-1.02,4.669-1.594,7.271-1.594c4.828,0.002,9.171,1.949,12.338,5.111c3.162,3.167,5.108,7.51,5.109,12.336
	c-0.001,4.828-1.947,9.173-5.109,12.338c-3.167,3.163-7.51,5.108-12.338,5.111c-0.338,0-0.674-0.012-1.011-0.033l0.001,0.003
	c-0.089-0.007-0.189-0.016-0.306-0.023c-0.237-0.02-0.474-0.041-0.708-0.068c-0.103-0.009-0.209-0.024-0.323-0.042l0.004,0.003
	c-0.24-0.034-0.475-0.069-0.712-0.11c-0.096-0.019-0.186-0.031-0.266-0.047h-0.001c-0.301-0.06-0.598-0.122-0.889-0.196
	l-0.009-0.001l-0.049-0.013c-0.665-0.166-1.314-0.374-1.947-0.617l-0.086-0.033l-0.002-0.001c-0.287-0.111-0.572-0.229-0.851-0.355
	l-0.093-0.042l0.002,0.001c-0.3-0.137-0.594-0.28-0.886-0.435c-0.252-0.131-0.56-0.084-0.761,0.117
	c-0.041,0.042-0.081,0.083-0.122,0.122c-0.903,0.909-1.807,1.818-2.711,2.729c-0.006,0.004-0.01,0.011-0.014,0.015
	c-0.142,0.142-0.208,0.338-0.184,0.538c0.025,0.196,0.141,0.372,0.312,0.475c3.392,2.031,7.367,3.205,11.609,3.205
	c6.245,0,11.919-2.54,16.01-6.63c4.089-4.089,6.628-9.764,6.628-16.005l0,0v-0.002v-0.008C69.46,40.899,66.921,35.227,62.832,31.139
	"/>
<path fill="#FFFFFF" d="M45.029,47.889c0,0.276,0.106,0.54,0.298,0.74l7.405,7.686c0.408,0.427,1.084,0.437,1.509,0.03
	c0.425-0.409,0.437-1.085,0.028-1.508l-7.107-7.379v-9.169c0-0.589-0.478-1.067-1.067-1.067c-0.38,0-0.712,0.201-0.901,0.5
	c-0.053,0.085-0.09,0.176-0.119,0.274c-0.026,0.092-0.045,0.19-0.045,0.292V47.889z"/>
<path fill="#FFFFFF" d="M33.549,63.587c-4.984-3.848-8.223-10.037-8.223-17.003c0-2.409,0.389-4.726,1.1-6.883l1.883,0.984
	c-0.582,1.856-0.897,3.84-0.897,5.898c0,6.34,2.99,11.961,7.573,15.399"/>
<g>
</g>
<g>
</g>
<g>
</g>
<g>
</g>
<g>
</g>
<g>
</g>
</svg>
