<?xml version="1.0" encoding="utf-8"?>
<!-- Generator: Adobe Illustrator 16.0.0, SVG Export Plug-In . SVG Version: 6.00 Build 0)  -->
<!DOCTYPE svg PUBLIC "-//W3C//DTD SVG 1.1//EN" "http://www.w3.org/Graphics/SVG/1.1/DTD/svg11.dtd">
<svg version="1.1" id="Layer_1" xmlns="http://www.w3.org/2000/svg" xmlns:xlink="http://www.w3.org/1999/xlink" x="0px" y="0px"
	 width="90px" height="90px" viewBox="0 0 90 90" enable-background="new 0 0 90 90" xml:space="preserve">
<g>
	<defs>
		<path id="SVGID_1_" d="M8.65,46.107c0,20.285,16.445,36.73,36.73,36.73S82.11,66.393,82.11,46.107
			c0-20.285-16.444-36.73-36.729-36.73S8.65,25.823,8.65,46.107"/>
	</defs>
	<clipPath id="SVGID_2_">
		<use xlink:href="#SVGID_1_"  overflow="visible"/>
	</clipPath>
	
		<linearGradient id="SVGID_3_" gradientUnits="userSpaceOnUse" x1="-1211.0503" y1="4239.6758" x2="-1210.6411" y2="4239.6758" gradientTransform="matrix(0 179.4087 179.4087 0 -760589.25 217282.375)">
		<stop  offset="0" style="stop-color:#EAD13F"/>
		<stop  offset="1" style="stop-color:#B1D03D"/>
	</linearGradient>
	<rect x="8.65" y="9.377" clip-path="url(#SVGID_2_)" fill="url(#SVGID_3_)" width="73.46" height="73.46"/>
</g>
<path fill="#FFFFFF" d="M46.183,42.486h-17.38c-0.399,0-0.724,0.325-0.724,0.726c0,0.399,0.324,0.723,0.724,0.723h17.38
	c0.4,0,0.725-0.324,0.725-0.723C46.907,42.811,46.583,42.486,46.183,42.486"/>
<path fill="#FFFFFF" d="M46.183,54.074h-17.38c-0.399,0-0.724,0.325-0.724,0.725c0,0.4,0.324,0.725,0.724,0.725h17.38
	c0.4,0,0.725-0.324,0.725-0.725C46.907,54.399,46.583,54.074,46.183,54.074"/>
<path fill="#FFFFFF" d="M46.183,56.972h-17.38c-0.399,0-0.724,0.324-0.724,0.725c0,0.398,0.324,0.725,0.724,0.725h17.38
	c0.4,0,0.725-0.326,0.725-0.725C46.907,57.296,46.583,56.972,46.183,56.972"/>
<path fill="#FFFFFF" d="M28.803,46.832h13.035c0.4,0,0.725-0.324,0.725-0.725s-0.324-0.725-0.725-0.725H28.803
	c-0.399,0-0.724,0.324-0.724,0.725S28.403,46.832,28.803,46.832"/>
<path fill="#FFFFFF" d="M28.803,49.729h7.967c0.4,0,0.725-0.325,0.725-0.725c0-0.4-0.324-0.725-0.725-0.725h-7.967
	c-0.399,0-0.724,0.324-0.724,0.725C28.079,49.404,28.403,49.729,28.803,49.729"/>
<path fill="#FFFFFF" d="M49.805,58.421h13.036V42.486H49.805V58.421z M51.252,43.935h10.14v13.037h-10.14V43.935z"/>
<path fill="#FFFFFF" d="M64.289,28.001H26.627c-2.399,0-4.345,1.946-4.345,4.346v27.521c0,2.4,1.945,4.345,4.345,4.345h37.662
	c2.399,0,4.346-1.944,4.346-4.345V32.347C68.635,29.947,66.688,28.001,64.289,28.001 M26.627,30.898h37.662
	c0.798,0,1.449,0.649,1.449,1.449v4.345h-40.56v-4.345C25.179,31.548,25.828,30.898,26.627,30.898 M64.289,61.316H26.627
	c-0.799,0-1.448-0.649-1.448-1.448V39.59h40.56v20.278C65.738,60.667,65.087,61.316,64.289,61.316"/>
<path fill="#FFFFFF" d="M29.165,34.521c0.6,0,1.087-0.487,1.087-1.087c0-0.601-0.487-1.086-1.087-1.086s-1.086,0.486-1.086,1.086
	C28.079,34.034,28.565,34.521,29.165,34.521"/>
<path fill="#FFFFFF" d="M32.787,34.521c0.6,0,1.085-0.487,1.085-1.087c0-0.601-0.485-1.086-1.085-1.086S31.7,32.833,31.7,33.434
	C31.7,34.034,32.188,34.521,32.787,34.521"/>
<path fill="#FFFFFF" d="M36.408,34.521c0.601,0,1.086-0.487,1.086-1.087c0-0.601-0.485-1.086-1.086-1.086
	c-0.599,0-1.086,0.486-1.086,1.086C35.322,34.034,35.81,34.521,36.408,34.521"/>
<g>
</g>
<g>
</g>
<g>
</g>
<g>
</g>
<g>
</g>
<g>
</g>
</svg>
